<svg width="24" height="24" viewBox="0 0 24 24" fill="none" xmlns="http://www.w3.org/2000/svg">
<g id="vuesax/outline/headphone">
<g id="headphone">
<path id="Vector" d="M5.57001 22.6998C3.23001 22.6998 1.25001 20.7198 1.25001 18.3798V12.2198C1.20001 9.2998 2.28001 6.5498 4.30001 4.4898C6.32001 2.4398 9.03001 1.2998 11.95 1.2998C17.91 1.2998 22.75 6.14981 22.75 12.0998V18.2598C22.75 20.6398 20.81 22.5798 18.43 22.5798C16.09 22.5798 14.11 20.5998 14.11 18.2598V15.4498C14.11 13.9998 15.25 12.8598 16.7 12.8598C18.15 12.8598 19.29 13.9998 19.29 15.4498V18.4798C19.29 18.8898 18.95 19.2298 18.54 19.2298C18.13 19.2298 17.79 18.8898 17.79 18.4798V15.4498C17.79 14.7698 17.24 14.3598 16.7 14.3598C16.02 14.3598 15.61 14.9098 15.61 15.4498V18.2598C15.61 19.7898 16.9 21.0798 18.43 21.0798C19.96 21.0798 21.25 19.7898 21.25 18.2598V12.0998C21.25 6.9698 17.08 2.7998 11.95 2.7998C9.44001 2.7998 7.11001 3.7698 5.37001 5.5398C3.63001 7.3098 2.70001 9.6798 2.75001 12.1998V18.3798C2.75001 19.9098 4.04001 21.1998 5.57001 21.1998C7.10001 21.1998 8.39001 19.9098 8.39001 18.3798V15.5698C8.39001 14.8898 7.84001 14.4798 7.30001 14.4798C6.62001 14.4798 6.21001 15.0298 6.21001 15.5698V18.4898C6.21001 18.8998 5.87001 19.2398 5.46001 19.2398C5.05001 19.2398 4.71001 18.8998 4.71001 18.4898V15.5698C4.71001 14.1198 5.85001 12.9798 7.30001 12.9798C8.75001 12.9798 9.89001 14.1198 9.89001 15.5698V18.3798C9.89001 20.7198 7.91001 22.6998 5.57001 22.6998Z" fill="#292D32"/>
</g>
</g>
</svg>
