<svg width="59" height="59" viewBox="0 0 59 59" fill="none" xmlns="http://www.w3.org/2000/svg">
<circle cx="29.5" cy="29.5" r="29.5" fill="white"/>
<path d="M27.57 35.82C27.38 35.82 27.19 35.75 27.04 35.6L20.97 29.53C20.68 29.24 20.68 28.76 20.97 28.47L27.04 22.4C27.33 22.11 27.81 22.11 28.1 22.4C28.39 22.69 28.39 23.17 28.1 23.46L22.56 29L28.1 34.54C28.39 34.83 28.39 35.31 28.1 35.6C27.96 35.75 27.76 35.82 27.57 35.82Z" fill="#292D32"/>
<path d="M38.5 29.75H21.67C21.26 29.75 20.92 29.41 20.92 29C20.92 28.59 21.26 28.25 21.67 28.25H38.5C38.91 28.25 39.25 28.59 39.25 29C39.25 29.41 38.91 29.75 38.5 29.75Z" fill="#292D32"/>
</svg>
