<svg width="24" height="25" viewBox="0 0 24 25" fill="none" xmlns="http://www.w3.org/2000/svg">
<g id="vuesax/outline/magicpen">
<g id="magicpen">
<path id="Vector" d="M5 22.3699C4.26 22.3699 3.53 22.0899 2.97 21.5299C2.43 20.9899 2.13 20.2699 2.13 19.4999C2.13 18.7299 2.43 18.0099 2.97 17.4699L15.97 4.46988C17.09 3.34988 18.91 3.34988 20.03 4.46988C20.57 5.00988 20.87 5.72988 20.87 6.49988C20.87 7.26988 20.57 7.98988 20.03 8.52988L7.03 21.5299C6.47001 22.0899 5.74 22.3699 5 22.3699ZM18 5.12988C17.65 5.12988 17.3 5.25988 17.03 5.52988L4.03 18.5299C3.77 18.7899 3.63 19.1299 3.63 19.4999C3.63 19.8699 3.77 20.2099 4.03 20.4699C4.56 20.9999 5.44 20.9999 5.97 20.4699L18.97 7.46988C19.23 7.20988 19.37 6.86988 19.37 6.49988C19.37 6.12988 19.23 5.78988 18.97 5.52988C18.7 5.25988 18.35 5.12988 18 5.12988Z" fill="#292D32"/>
<path id="Vector_2" d="M18.01 10.2402C17.82 10.2402 17.63 10.1702 17.48 10.0202L14.48 7.02018C14.19 6.73018 14.19 6.25018 14.48 5.96018C14.77 5.67018 15.25 5.67018 15.54 5.96018L18.54 8.96018C18.83 9.25018 18.83 9.73018 18.54 10.0202C18.39 10.1702 18.2 10.2402 18.01 10.2402Z" fill="#292D32"/>
<path id="Vector_3" d="M9.99999 6.00005C9.94999 6.00005 9.90999 5.99005 9.85999 5.98005L8.49999 5.58005L7.13999 5.98005C6.95999 6.03005 6.76999 5.98005 6.64999 5.85005C6.51999 5.72005 6.46999 5.54005 6.51999 5.36005L6.91999 4.00005L6.51999 2.64005C6.46999 2.46005 6.51999 2.27005 6.64999 2.15005C6.77999 2.02005 6.96999 1.97005 7.13999 2.02005L8.49999 2.42005L9.85999 2.02005C10.04 1.97005 10.22 2.02005 10.35 2.15005C10.48 2.28005 10.53 2.47005 10.48 2.64005L10.08 4.00005L10.48 5.36005C10.53 5.54005 10.48 5.73005 10.35 5.85005C10.26 5.95005 10.13 6.00005 9.99999 6.00005ZM8.49999 4.56005C8.54999 4.56005 8.58999 4.57005 8.63999 4.58005L9.25999 4.76005L9.07999 4.14005C9.04999 4.05005 9.04999 3.95005 9.07999 3.86005L9.25999 3.24005L8.63999 3.42005C8.54999 3.45005 8.44999 3.45005 8.35999 3.42005L7.73999 3.24005L7.91999 3.86005C7.94999 3.95005 7.94999 4.05005 7.91999 4.14005L7.73999 4.76005L8.35999 4.58005C8.40999 4.57005 8.44999 4.56005 8.49999 4.56005Z" fill="#292D32"/>
<path id="Vector_4" d="M5.99999 12.0001C5.94999 12.0001 5.90999 11.9901 5.85999 11.9801L4.49999 11.5801L3.13999 11.9801C2.95999 12.0301 2.77999 11.9801 2.64999 11.8501C2.51999 11.7201 2.46999 11.5301 2.51999 11.3601L2.91999 10.0001L2.51999 8.64005C2.46999 8.46005 2.51999 8.27005 2.64999 8.15005C2.77999 8.03005 2.96999 7.97005 3.13999 8.02005L4.49999 8.42005L5.85999 8.02005C6.02999 7.97005 6.21999 8.02005 6.34999 8.15005C6.47999 8.28005 6.52999 8.47005 6.47999 8.64005L6.07999 10.0001L6.47999 11.3601C6.52999 11.5401 6.47999 11.7301 6.34999 11.8501C6.25999 11.9501 6.12999 12.0001 5.99999 12.0001ZM4.49999 10.5601C4.54999 10.5601 4.58999 10.5701 4.63999 10.5801L5.25999 10.7601L5.07999 10.1401C5.04999 10.0501 5.04999 9.95005 5.07999 9.86005L5.25999 9.24005L4.63999 9.42005C4.54999 9.45005 4.44999 9.45005 4.35999 9.42005L3.73999 9.24005L3.91999 9.86005C3.94999 9.95005 3.94999 10.0501 3.91999 10.1401L3.73999 10.7601L4.35999 10.5801C4.40999 10.5701 4.44999 10.5601 4.49999 10.5601Z" fill="#292D32"/>
<path id="Vector_5" d="M21 17.0001C20.95 17.0001 20.91 16.9901 20.86 16.9801L19.5 16.5801L18.14 16.9801C17.96 17.0301 17.78 16.9801 17.65 16.8501C17.52 16.7201 17.47 16.5301 17.52 16.3601L17.92 15.0001L17.52 13.6401C17.47 13.4601 17.52 13.2701 17.65 13.1501C17.78 13.0301 17.97 12.9701 18.14 13.0201L19.5 13.4201L20.86 13.0201C21.03 12.9701 21.22 13.0201 21.35 13.1501C21.48 13.2801 21.53 13.4701 21.48 13.6401L21.08 15.0001L21.48 16.3601C21.53 16.5401 21.48 16.7301 21.35 16.8501C21.26 16.9501 21.13 17.0001 21 17.0001ZM19.5 15.5601C19.55 15.5601 19.59 15.5701 19.64 15.5801L20.26 15.7601L20.08 15.1401C20.05 15.0501 20.05 14.9501 20.08 14.8601L20.26 14.2401L19.64 14.4201C19.55 14.4501 19.45 14.4501 19.36 14.4201L18.74 14.2401L18.92 14.8601C18.95 14.9501 18.95 15.0501 18.92 15.1401L18.74 15.7601L19.36 15.5801C19.41 15.5701 19.45 15.5601 19.5 15.5601Z" fill="#292D32"/>
</g>
</g>
</svg>
