<svg width="25" height="24" viewBox="0 0 25 24" fill="none" xmlns="http://www.w3.org/2000/svg">
<g id="vuesax/outline/money">
<g id="money">
<path id="Vector" d="M17.5 21.25H7.5C3.85 21.25 1.75 19.15 1.75 15.5V8.5C1.75 4.85 3.85 2.75 7.5 2.75H17.5C21.15 2.75 23.25 4.85 23.25 8.5V15.5C23.25 19.15 21.15 21.25 17.5 21.25ZM7.5 4.25C4.64 4.25 3.25 5.64 3.25 8.5V15.5C3.25 18.36 4.64 19.75 7.5 19.75H17.5C20.36 19.75 21.75 18.36 21.75 15.5V8.5C21.75 5.64 20.36 4.25 17.5 4.25H7.5Z" fill="#292D32"/>
<path id="Vector_2" d="M12.5 15.75C10.43 15.75 8.75 14.07 8.75 12C8.75 9.93 10.43 8.25 12.5 8.25C14.57 8.25 16.25 9.93 16.25 12C16.25 14.07 14.57 15.75 12.5 15.75ZM12.5 9.75C11.26 9.75 10.25 10.76 10.25 12C10.25 13.24 11.26 14.25 12.5 14.25C13.74 14.25 14.75 13.24 14.75 12C14.75 10.76 13.74 9.75 12.5 9.75Z" fill="#292D32"/>
<path id="Vector_3" d="M6 15.25C5.59 15.25 5.25 14.91 5.25 14.5V9.5C5.25 9.09 5.59 8.75 6 8.75C6.41 8.75 6.75 9.09 6.75 9.5V14.5C6.75 14.91 6.41 15.25 6 15.25Z" fill="#292D32"/>
<path id="Vector_4" d="M19 15.25C18.59 15.25 18.25 14.91 18.25 14.5V9.5C18.25 9.09 18.59 8.75 19 8.75C19.41 8.75 19.75 9.09 19.75 9.5V14.5C19.75 14.91 19.41 15.25 19 15.25Z" fill="#292D32"/>
</g>
</g>
</svg>
