<svg width="59" height="59" viewBox="0 0 59 59" fill="none" xmlns="http://www.w3.org/2000/svg">
<circle cx="29.5" cy="29.5" r="29.5" fill="white"/>
<path d="M32.43 35.82C32.24 35.82 32.05 35.75 31.9 35.6C31.61 35.31 31.61 34.83 31.9 34.54L37.44 29L31.9 23.46C31.61 23.17 31.61 22.69 31.9 22.4C32.19 22.11 32.67 22.11 32.96 22.4L39.03 28.47C39.32 28.76 39.32 29.24 39.03 29.53L32.96 35.6C32.81 35.75 32.62 35.82 32.43 35.82Z" fill="#292D32"/>
<path d="M38.33 29.75H21.5C21.09 29.75 20.75 29.41 20.75 29C20.75 28.59 21.09 28.25 21.5 28.25H38.33C38.74 28.25 39.08 28.59 39.08 29C39.08 29.41 38.74 29.75 38.33 29.75Z" fill="#292D32"/>
</svg>
